<svg xmlns="http://www.w3.org/2000/svg" viewBox="0 0 200 220" width="200" height="220">
  <!-- 顺丰快递 Express Delivery - delivery hat, carrying packages, running pose -->
  <!-- Head -->
  <polygon points="78,28 128,28 132,52 130,80 74,80 72,52" fill="#F2D0A4"/>
  <polygon points="128,28 132,52 130,80 124,78 127,52 124,30" fill="#E8BE8C"/>
  <!-- Cap -->
  <polygon points="68,20 135,20 138,35 65,35" fill="#E74C3C"/>
  <polygon points="68,20 135,20 128,24 72,24" fill="#FF5555"/>
  <!-- Cap brim -->
  <polygon points="65,35 140,35 145,40 60,40" fill="#C0392B"/>
  <!-- Hair -->
  <polygon points="74,35 128,35 126,42 76,42" fill="#2C2C2C"/>
  <!-- Eyes - determined -->
  <polygon points="82,48 94,48 93,56 83,56" fill="white"/>
  <polygon points="108,48 120,48 119,56 109,56" fill="white"/>
  <polygon points="86,50 92,50 91,55 87,55" fill="#222"/>
  <polygon points="112,50 118,50 117,55 113,55" fill="#222"/>
  <!-- Brows -->
  <polygon points="80,44 95,43 94,47 81,47" fill="#2C2C2C"/>
  <polygon points="107,43 122,44 121,47 108,47" fill="#2C2C2C"/>
  <!-- Mouth - grinning -->
  <polygon points="90,64 112,64 108,72 94,72" fill="#333"/>
  <polygon points="94,65 108,65 106,68 96,68" fill="white"/>
  <!-- Neck -->
  <polygon points="92,80 112,80 114,90 90,90" fill="#E8BE8C"/>
  <!-- Body - red uniform -->
  <polygon points="58,90 145,90 148,170 55,170" fill="#E74C3C"/>
  <polygon points="145,90 148,170 140,168 137,92" fill="#C0392B"/>
  <!-- Package on back -->
  <polygon points="118,70 158,70 160,130 120,130" fill="#C89040"/>
  <polygon points="158,70 160,130 152,128 150,72" fill="#A87830"/>
  <!-- Package tape -->
  <polygon points="135,70 141,70 142,130 136,130" fill="#F5DEB3"/>
  <!-- Left arm forward (running) -->
  <polygon points="58,90 35,105 30,95 42,82 50,88" fill="#E74C3C"/>
  <polygon points="30,92 38,80 35,75 25,86" fill="#F2D0A4"/>
  <!-- Right arm holding package -->
  <polygon points="145,90 160,100 158,130 143,125" fill="#C0392B"/>
  <!-- Legs - running -->
  <polygon points="62,170 92,170 78,212 48,212" fill="#2C3E50"/>
  <polygon points="108,170 140,170 155,212 118,212" fill="#1A2533"/>
  <!-- Feet -->
  <polygon points="44,210 82,210 85,220 40,220" fill="#E74C3C"/>
  <polygon points="115,210 158,210 162,220 112,220" fill="#C0392B"/>
</svg>