<svg xmlns="http://www.w3.org/2000/svg" viewBox="0 0 200 220" width="200" height="220">
  <!-- 独狼 Lone Wolf - hoodie with wolf ears, hands in pockets -->
  <!-- Head -->
  <polygon points="72,28 128,28 133,55 130,88 70,88 67,55" fill="#F2D0A4"/>
  <polygon points="128,28 133,55 130,88 124,86 127,55 124,30" fill="#E8BE8C"/>
  <!-- Hood -->
  <polygon points="60,22 140,22 144,58 136,72 128,30 72,30 64,72 56,58" fill="#444"/>
  <polygon points="60,22 72,30 64,72 56,58" fill="#555"/>
  <polygon points="140,22 128,30 136,72 144,58" fill="#333"/>
  <!-- Wolf ears on hood -->
  <polygon points="66,22 58,4 74,16" fill="#444"/>
  <polygon points="134,22 142,4 126,16" fill="#333"/>
  <!-- Hair peeking -->
  <polygon points="74,30 126,30 124,42 76,42" fill="#2A2A2A"/>
  <!-- Eyes - narrow focused -->
  <polygon points="80,56 93,56 92,63 81,63" fill="white"/>
  <polygon points="107,56 120,56 119,63 108,63" fill="white"/>
  <polygon points="85,58 91,58 90,62 86,62" fill="#1A3A1A"/>
  <polygon points="111,58 117,58 116,62 112,62" fill="#1A3A1A"/>
  <!-- Brows -->
  <polygon points="78,52 95,50 94,54 79,55" fill="#2A2A2A"/>
  <polygon points="105,50 122,52 121,55 106,54" fill="#2A2A2A"/>
  <!-- Mouth -->
  <polygon points="92,73 108,73 107,76 93,76" fill="#C4846C"/>
  <!-- Neck -->
  <polygon points="90,88 110,88 112,98 88,98" fill="#E8BE8C"/>
  <!-- Hoodie body -->
  <polygon points="52,96 148,96 152,175 48,175" fill="#444"/>
  <polygon points="148,96 152,175 142,173 140,98" fill="#333"/>
  <!-- Center zip -->
  <polygon points="98,96 102,96 103,175 97,175" fill="#333"/>
  <!-- Arms in pockets -->
  <polygon points="52,96 38,112 36,148 50,152 52,114" fill="#444"/>
  <polygon points="148,96 162,112 164,148 150,152 148,114" fill="#333"/>
  <!-- Pockets -->
  <polygon points="58,146 93,146 91,160 56,160" fill="#3A3A3A"/>
  <polygon points="107,146 142,146 144,160 109,160" fill="#303030"/>
  <!-- Legs -->
  <polygon points="56,175 95,175 92,212 52,212" fill="#2C3E50"/>
  <polygon points="105,175 144,175 148,212 108,212" fill="#1A2533"/>
  <!-- Feet -->
  <polygon points="48,210 95,210 97,220 45,220" fill="#222"/>
  <polygon points="105,210 150,210 153,220 102,220" fill="#1A1A1A"/>
</svg>