<svg xmlns="http://www.w3.org/2000/svg" viewBox="0 0 200 220" width="200" height="220">
  <!-- 舔包保姆 Loot Nanny - nurse cap, carrying supply bag, caring expression -->
  <!-- Head -->
  <polygon points="74,28 126,28 130,55 128,85 72,85 70,55" fill="#F2D0A4"/>
  <polygon points="126,28 130,55 128,85 122,83 125,55 122,30" fill="#E8BE8C"/>
  <!-- Hair -->
  <polygon points="72,28 128,28 126,38 74,38" fill="#4A3728"/>
  <polygon points="68,28 72,38 68,55 64,45" fill="#4A3728"/>
  <polygon points="132,28 128,38 132,55 136,45" fill="#3A2A1C"/>
  <!-- Nurse/medic cap -->
  <polygon points="72,15 128,15 130,28 70,28" fill="white"/>
  <polygon points="95,15 105,15 106,28 94,28" fill="#E74C3C"/>
  <polygon points="98,18 102,18 102,25 98,25" fill="#E74C3C"/>
  <polygon points="96,20 104,20 104,23 96,23" fill="#E74C3C"/>
  <!-- Eyes - kind -->
  <polygon points="80,50 92,50 91,58 81,58" fill="white"/>
  <polygon points="108,50 120,50 119,58 109,58" fill="white"/>
  <polygon points="84,52 90,52 89,57 85,57" fill="#4A2800"/>
  <polygon points="112,52 118,52 117,57 113,57" fill="#4A2800"/>
  <!-- Smile -->
  <path d="M88,68 Q100,78 112,68" fill="none" stroke="#C4846C" stroke-width="2.5"/>
  <!-- Neck -->
  <polygon points="90,85 110,85 112,95 88,95" fill="#E8BE8C"/>
  <!-- Body - white medic top -->
  <polygon points="58,95 142,95 146,172 54,172" fill="white"/>
  <polygon points="142,95 146,172 138,170 135,97" fill="#E8E8E8"/>
  <!-- Red cross on chest -->
  <polygon points="95,108 105,108 105,135 95,135" fill="#E74C3C"/>
  <polygon points="88,116 112,116 112,126 88,126" fill="#E74C3C"/>
  <!-- Left arm holding supply bag -->
  <polygon points="58,95 38,110 35,150 52,155 56,112" fill="white"/>
  <!-- Supply bag -->
  <polygon points="22,130 48,125 50,160 24,162" fill="#2ECC71"/>
  <polygon points="30,130 40,130 42,145 32,145" fill="white"/>
  <!-- Red cross on bag -->
  <polygon points="34,133 38,133 38,142 34,142" fill="#E74C3C"/>
  <polygon points="32,136 40,136 40,140 32,140" fill="#E74C3C"/>
  <!-- Right arm -->
  <polygon points="142,95 162,110 160,150 145,155 143,112" fill="#E8E8E8"/>
  <!-- Pants -->
  <polygon points="60,172 95,172 92,212 56,212" fill="#556B2F"/>
  <polygon points="105,172 140,172 144,212 108,212" fill="#4A5F25"/>
  <!-- Feet -->
  <polygon points="52,210 95,210 97,220 48,220" fill="#333"/>
  <polygon points="105,210 148,210 150,220 102,220" fill="#2A2A2A"/>
</svg>