<svg xmlns="http://www.w3.org/2000/svg" xmlns:xlink="http://www.w3.org/1999/xlink" width="26" height="26" viewBox="0 0 26 26" fill="none">
<rect x="0" y="0" width="0" height="0" fill="rgba(249, 249, 249, 1)" />
<path d="M13.29 1C7.6177 1 3 5.49763 3 11.04C3 18.5843 12.5313 24.9143 12.93 25.17C13.0361 25.2379 13.1641 25.27 13.29 25.27C13.416 25.27 13.5339 25.2379 13.64 25.17C14.0473 24.9057 23.57 18.5843 23.57 11.04C23.57 5.49763 18.9624 1 13.29 1Z"   fill="#EDCC13" >
</path>
<path d="M10.0229 6.88746C9.78507 6.95788 9.72386 7.26663 9.91723 7.42208L14.0366 10.7365C14.1124 10.7978 14.2137 10.8189 14.308 10.794L15.7336 10.417C15.7371 10.416 15.7405 10.4151 15.7439 10.4141C15.7473 10.413 15.7507 10.4119 15.7541 10.4108C15.7575 10.4096 15.7608 10.4084 15.7642 10.4072C15.7675 10.4059 15.7708 10.4046 15.7741 10.4032C15.7774 10.4018 15.7806 10.4004 15.7839 10.3989C15.7871 10.3974 15.7903 10.3959 15.7935 10.3943C15.7967 10.3926 15.7998 10.391 15.803 10.3893C15.8061 10.3876 15.8092 10.3858 15.8123 10.384C15.8153 10.3822 15.8183 10.3803 15.8213 10.3784C15.8243 10.3764 15.8273 10.3745 15.8302 10.3724C15.8332 10.3704 15.836 10.3683 15.8389 10.3662C15.8418 10.3641 15.8446 10.3619 15.8474 10.3597C15.8502 10.3574 15.8529 10.3551 15.8556 10.3528C15.8583 10.3505 15.861 10.3481 15.8636 10.3457C15.8662 10.3433 15.8688 10.3408 15.8713 10.3383C15.8739 10.3358 15.8763 10.3333 15.8788 10.3307C15.8812 10.3281 15.8836 10.3255 15.886 10.3228C15.8883 10.3201 15.8907 10.3174 15.8929 10.3146C15.8952 10.3119 15.8974 10.3091 15.8996 10.3063C15.9017 10.3034 15.9038 10.3006 15.9059 10.2977C15.9079 10.2948 15.91 10.2918 15.9119 10.2888C15.9139 10.2859 15.9158 10.2829 15.9177 10.2798C15.9195 10.2768 15.9213 10.2737 15.9231 10.2706C15.9248 10.2675 15.9265 10.2644 15.9282 10.2612C15.9298 10.258 15.9314 10.2548 15.9329 10.2516C15.9344 10.2484 15.9359 10.2452 15.9373 10.2419C15.9387 10.2386 15.9401 10.2353 15.9414 10.232C15.9427 10.2287 15.944 10.2254 15.9452 10.222C15.9463 10.2186 15.9475 10.2153 15.9485 10.2119C15.9496 10.2085 15.9506 10.205 15.9516 10.2016C15.9525 10.1982 15.9534 10.1947 15.9542 10.1913C15.9551 10.1878 15.9558 10.1843 15.9566 10.1808C15.9573 10.1773 15.9579 10.1738 15.9585 10.1703C15.9591 10.1668 15.9596 10.1633 15.9601 10.1597C15.9605 10.1562 15.9609 10.1527 15.9613 10.1491C15.9616 10.1456 15.9619 10.142 15.9621 10.1385C15.9624 10.1349 15.9625 10.1313 15.9626 10.1278C15.9627 10.1242 15.9627 10.1207 15.9627 10.1171C15.9627 10.1135 15.9626 10.11 15.9624 10.1064C15.9623 10.1029 15.9621 10.0993 15.9618 10.0957C15.9615 10.0922 15.9612 10.0886 15.9608 10.0851C15.9604 10.0816 15.9599 10.078 15.9594 10.0745C15.9589 10.071 15.9583 10.0675 15.9577 10.064C15.957 10.0605 15.9563 10.057 15.9556 10.0535C15.9548 10.05 15.954 10.0465 15.9531 10.0431C15.9522 10.0396 15.9512 10.0362 15.9502 10.0328C15.9492 10.0293 15.9482 10.0259 15.9471 10.0226C15.9459 10.0192 15.9447 10.0158 15.9435 10.0125C15.9423 10.0091 15.941 10.0058 15.9396 10.0025C15.9383 9.99924 15.9368 9.99596 15.9354 9.99272C15.9339 9.98947 15.9324 9.98625 15.9308 9.98306C15.9292 9.97986 15.9276 9.97669 15.9259 9.97356C15.9242 9.97042 15.9225 9.96731 15.9207 9.96423C15.9189 9.96116 15.917 9.95811 15.9151 9.95511C15.9132 9.95208 15.9113 9.94911 15.9092 9.94617C15.9072 9.94322 15.9052 9.94032 15.9031 9.93745C15.901 9.93456 15.8988 9.93173 15.8966 9.92894C15.8944 9.92614 15.8921 9.92338 15.8898 9.92066C15.8875 9.91795 15.8852 9.91527 15.8828 9.91263C15.8804 9.90999 15.878 9.90738 15.8755 9.90485C15.873 9.90228 15.8704 9.89978 15.8679 9.89732C15.8653 9.89485 15.8627 9.89243 15.86 9.89005C15.8574 9.88768 15.8547 9.88536 15.8519 9.88307C15.8492 9.88079 15.8464 9.87857 15.8436 9.87638L11.5704 6.56408C11.5656 6.56038 11.5607 6.55683 11.5557 6.55342C11.5507 6.55001 11.5456 6.54675 11.5404 6.54364C11.5352 6.54053 11.5299 6.53757 11.5245 6.53478C11.5192 6.53198 11.5137 6.52934 11.5082 6.52687C11.5027 6.52439 11.4971 6.52208 11.4914 6.51994C11.4858 6.5178 11.48 6.51582 11.4742 6.51401C11.4685 6.51221 11.4626 6.51057 11.4568 6.50911C11.4509 6.50765 11.445 6.50636 11.439 6.50524C11.4331 6.50413 11.4271 6.50319 11.4211 6.50243C11.415 6.50167 11.409 6.50109 11.403 6.50069C11.3969 6.50029 11.3909 6.50006 11.3848 6.50001C11.3788 6.49997 11.3727 6.5001 11.3667 6.5004C11.3606 6.50071 11.3546 6.50121 11.3486 6.50187C11.3426 6.50254 11.3366 6.50338 11.3306 6.5044C11.3246 6.50542 11.3187 6.50662 11.3128 6.50799C11.3069 6.50936 11.301 6.51091 11.2952 6.51263L10.0234 6.88746L10.0229 6.88746ZM15.1037 7.52878L14.6178 7.41396L15.0706 7.27746C15.158 6.9864 15.2017 6.82445 15.2017 6.79158L15.3111 7.27746L15.7645 7.41396L15.3111 7.52878L15.2017 8.00384L15.1037 7.52878ZM16.4151 8.46479L15.712 8.29904L16.3674 8.10134C16.4938 7.67991 16.557 7.44537 16.557 7.39771L16.7157 8.10134L17.3711 8.29904L16.7157 8.46479L16.5575 9.15271L16.4151 8.46479ZM8.60695 8.71396C8.60538 8.71769 8.60389 8.72146 8.60247 8.72527C8.60105 8.72907 8.59971 8.73289 8.59844 8.73675C8.59718 8.7406 8.59598 8.74447 8.59488 8.74838C8.59376 8.75226 8.59273 8.75619 8.59177 8.76013C8.5908 8.76407 8.58993 8.76803 8.58913 8.772C8.58833 8.77598 8.5876 8.77996 8.58697 8.78398C8.58632 8.78798 8.58575 8.79199 8.58527 8.79602C8.58478 8.80004 8.58438 8.80407 8.58406 8.80812C8.58373 8.81216 8.58348 8.8162 8.58332 8.82026C8.58315 8.82431 8.58307 8.82836 8.58307 8.83242C8.58306 8.83647 8.58313 8.84052 8.58329 8.84458C8.58344 8.84863 8.58368 8.85268 8.584 8.85672C8.5843 8.86076 8.5847 8.86479 8.58518 8.86883C8.58565 8.87286 8.58621 8.87687 8.58684 8.88088C8.58748 8.88488 8.58819 8.88886 8.58899 8.89285C8.58977 8.89682 8.59064 8.90079 8.59159 8.90473C8.59253 8.90867 8.59356 8.91259 8.59466 8.9165C8.59577 8.9204 8.59695 8.92427 8.5982 8.92813C8.59946 8.93199 8.60079 8.93581 8.6022 8.93962C8.6036 8.94342 8.60508 8.94719 8.60665 8.95094C8.60819 8.95468 8.60983 8.9584 8.61153 8.96208C8.61323 8.96576 8.61501 8.9694 8.61687 8.97301C8.61871 8.97661 8.62062 8.98019 8.62262 8.98372C8.6246 8.98725 8.62667 8.99076 8.6288 8.99421C8.63092 8.99765 8.63312 9.00105 8.63538 9.00443C8.63764 9.00779 8.63997 9.01112 8.64236 9.0144C8.64474 9.01766 8.64721 9.02088 8.64973 9.02407C8.65225 9.02724 8.65484 9.03037 8.65748 9.03344C8.66012 9.03651 8.66282 9.03953 8.66559 9.0425C8.66836 9.04547 8.67118 9.04838 8.67406 9.05124C8.67693 9.05408 8.67986 9.05689 8.68286 9.05963C8.68585 9.06237 8.68889 9.06505 8.69198 9.06767L13.1911 12.8685C13.3693 13.0191 13.6439 12.9243 13.6905 12.6952L13.9803 11.2869C13.981 11.2834 13.9816 11.28 13.9822 11.2765C13.9828 11.273 13.9834 11.2695 13.9838 11.266C13.9843 11.2625 13.9847 11.259 13.9851 11.2555C13.9854 11.252 13.9857 11.2485 13.986 11.2449C13.9862 11.2414 13.9864 11.2379 13.9865 11.2344C13.9866 11.2308 13.9866 11.2273 13.9866 11.2238C13.9866 11.2203 13.9866 11.2167 13.9864 11.2132C13.9863 11.2097 13.9861 11.2061 13.9859 11.2026C13.9856 11.1991 13.9853 11.1956 13.9849 11.1921C13.9845 11.1886 13.9841 11.1851 13.9836 11.1816C13.9831 11.1781 13.9826 11.1746 13.982 11.1711C13.9814 11.1676 13.9807 11.1642 13.9799 11.1607C13.9792 11.1573 13.9784 11.1538 13.9776 11.1504C13.9767 11.147 13.9758 11.1436 13.9748 11.1402C13.9739 11.1368 13.9728 11.1334 13.9718 11.13C13.9707 11.1267 13.9695 11.1233 13.9683 11.12C13.9671 11.1167 13.9659 11.1134 13.9646 11.1101C13.9633 11.1068 13.9619 11.1036 13.9605 11.1004C13.959 11.0971 13.9576 11.0939 13.956 11.0908C13.9545 11.0876 13.9529 11.0844 13.9513 11.0813C13.9496 11.0782 13.9479 11.0751 13.9462 11.072C13.9444 11.069 13.9426 11.0659 13.9408 11.0629C13.9389 11.0599 13.937 11.0569 13.935 11.054C13.9331 11.0511 13.9311 11.0482 13.929 11.0453C13.927 11.0424 13.9248 11.0396 13.9227 11.0368C13.9205 11.034 13.9183 11.0312 13.9161 11.0285C13.9138 11.0258 13.9115 11.0231 13.9092 11.0205C13.9069 11.0179 13.9045 11.0153 13.902 11.0127C13.8996 11.0101 13.8971 11.0076 13.8946 11.0051C13.8921 11.0027 13.8895 11.0002 13.887 10.9978C13.8843 10.9955 13.8817 10.9931 13.879 10.9908C13.8763 10.9885 13.8736 10.9863 13.8709 10.9841L9.5267 7.52663C9.52205 7.52292 9.51732 7.51935 9.51248 7.51592C9.50763 7.5125 9.50269 7.50921 9.49767 7.50607C9.49263 7.50292 9.48751 7.49993 9.4823 7.49708C9.4771 7.49424 9.47181 7.49155 9.46645 7.489C9.46108 7.48646 9.45564 7.48408 9.45015 7.48185C9.44465 7.47962 9.43909 7.47756 9.43348 7.47566C9.42785 7.47375 9.42218 7.47201 9.41647 7.47044C9.41074 7.46885 9.40498 7.46744 9.39918 7.4662C9.39337 7.46495 9.38755 7.46388 9.38168 7.46297C9.37582 7.46207 9.36993 7.46133 9.36402 7.46078C9.35811 7.46021 9.35219 7.45981 9.34626 7.45958C9.34033 7.45936 9.3344 7.45931 9.32848 7.45943C9.32253 7.45956 9.31662 7.45985 9.3107 7.46031C9.30479 7.46077 9.29888 7.46141 9.293 7.46221C9.28711 7.46301 9.28126 7.46399 9.27545 7.46513C9.26962 7.46627 9.26383 7.46759 9.25809 7.46907C9.25234 7.47054 9.24664 7.47218 9.241 7.47399C9.23534 7.47579 9.22974 7.47776 9.22421 7.4799C9.21867 7.48203 9.2132 7.48432 9.20779 7.48676C9.20239 7.48921 9.19707 7.49181 9.19181 7.49457C9.18655 7.49733 9.18138 7.50024 9.1763 7.50329C9.17121 7.50635 9.16622 7.50955 9.16132 7.51289C9.1564 7.51623 9.1516 7.51972 9.14691 7.52334C9.14221 7.52696 9.13761 7.53071 9.13313 7.5346C9.12864 7.53849 9.12427 7.54251 9.12003 7.54665C9.11578 7.55079 9.11165 7.55505 9.10765 7.55943C9.10364 7.56381 9.09977 7.5683 9.09602 7.5729C9.09228 7.57751 9.08867 7.58221 9.08521 7.58702C9.08173 7.59184 9.07839 7.59674 9.07522 7.60175C9.07202 7.60676 9.06898 7.61185 9.06609 7.61703C9.06319 7.62221 9.06045 7.62747 9.05786 7.63281C9.05527 7.63815 9.05285 7.64356 9.05058 7.64903L8.60641 8.71396L8.60695 8.71396ZM7.99595 10.612C7.99291 10.6132 7.98989 10.6145 7.9869 10.6158C7.9839 10.6172 7.98093 10.6186 7.97798 10.62C7.97504 10.6215 7.97211 10.623 7.96921 10.6245C7.96631 10.626 7.96343 10.6276 7.96059 10.6293C7.95775 10.6309 7.95493 10.6326 7.95214 10.6343C7.94934 10.636 7.94658 10.6378 7.94385 10.6396C7.94111 10.6414 7.93841 10.6433 7.93573 10.6452C7.93307 10.6471 7.93043 10.6491 7.92782 10.6511C7.92521 10.6531 7.92263 10.6551 7.92009 10.6572C7.91755 10.6593 7.91505 10.6614 7.91258 10.6635C7.91011 10.6657 7.90767 10.6679 7.90528 10.6701C7.90287 10.6724 7.90051 10.6747 7.89819 10.677C7.89588 10.6793 7.89359 10.6817 7.89134 10.6841C7.8891 10.6864 7.88689 10.6889 7.88472 10.6914C7.88256 10.6938 7.88043 10.6963 7.87835 10.6989C7.87627 10.7014 7.87423 10.704 7.87223 10.7066C7.87023 10.7092 7.86828 10.7118 7.86637 10.7145C7.86445 10.7172 7.86259 10.7198 7.86077 10.7226C7.85894 10.7253 7.85716 10.7281 7.85544 10.7309C7.8537 10.7336 7.85202 10.7365 7.85038 10.7393C7.84874 10.7422 7.84715 10.745 7.84561 10.7479C7.84406 10.7508 7.84256 10.7537 7.84112 10.7567C7.83967 10.7596 7.83827 10.7626 7.83691 10.7656C7.83557 10.7686 7.83427 10.7716 7.83302 10.7746C7.83176 10.7777 7.83056 10.7807 7.82941 10.7838C7.82826 10.7869 7.82716 10.79 7.82611 10.7931C7.82507 10.7962 7.82407 10.7993 7.82313 10.8025C7.82218 10.8056 7.82129 10.8088 7.82045 10.8119C7.8196 10.8151 7.81881 10.8183 7.81807 10.8215C7.81734 10.8247 7.81666 10.8279 7.81603 10.8311C7.81539 10.8343 7.81482 10.8376 7.81429 10.8408C7.81377 10.8441 7.8133 10.8473 7.81288 10.8506C7.81247 10.8538 7.8121 10.8571 7.81179 10.8604C7.81148 10.8636 7.81123 10.8669 7.81103 10.8702C7.81082 10.8734 7.81068 10.8767 7.81058 10.88C7.81049 10.8833 7.81045 10.8866 7.81046 10.8899C7.81047 10.8931 7.81054 10.8964 7.81066 10.8997C7.81079 10.903 7.81096 10.9063 7.81119 10.9095C7.81142 10.9128 7.81171 10.9161 7.81204 10.9193C7.81238 10.9226 7.81278 10.9259 7.81322 10.9291C7.81366 10.9324 7.81416 10.9356 7.81471 10.9389C7.81527 10.9421 7.81587 10.9453 7.81652 10.9485C7.81718 10.9518 7.8179 10.955 7.81866 10.9581C7.81943 10.9613 7.82024 10.9645 7.82111 10.9677C7.82198 10.9708 7.8229 10.974 7.82388 10.9771C7.82485 10.9803 7.82587 10.9834 7.82695 10.9865C7.82802 10.9896 7.82915 10.9927 7.83032 10.9957C7.8315 10.9988 7.83273 11.0018 7.83401 11.0049C7.83528 11.0079 7.83661 11.0109 7.83798 11.0139C7.83936 11.0169 7.84079 11.0198 7.84226 11.0228C7.84373 11.0257 7.84525 11.0286 7.84682 11.0315C7.84839 11.0344 7.85001 11.0372 7.85167 11.04C7.85333 11.0429 7.85504 11.0457 7.85679 11.0485C7.85855 11.0512 7.86035 11.054 7.8622 11.0567C7.86405 11.0594 7.86593 11.0621 7.86786 11.0647C7.8698 11.0674 7.87178 11.07 7.87379 11.0726C7.87582 11.0752 7.87788 11.0777 7.87999 11.0803C7.88209 11.0828 7.88423 11.0853 7.88643 11.0877C7.88861 11.0902 7.89084 11.0926 7.8931 11.095C7.89537 11.0973 7.89767 11.0997 7.90001 11.102C7.90235 11.1043 7.90474 11.1065 7.90716 11.1087C7.90958 11.111 7.91203 11.1131 7.91452 11.1153C7.91701 11.1174 7.91953 11.1195 7.92209 11.1216C7.92464 11.1236 7.92723 11.1257 7.92986 11.1276L12.4235 14.526C12.4278 14.5293 12.4322 14.5324 12.4366 14.5354C12.4411 14.5384 12.4456 14.5413 12.4503 14.5441C12.4549 14.5468 12.4595 14.5495 12.4643 14.552C12.4691 14.5545 12.4739 14.5569 12.4788 14.5591C12.4836 14.5614 12.4886 14.5635 12.4936 14.5655C12.4986 14.5675 12.5036 14.5693 12.5087 14.571C12.5138 14.5727 12.519 14.5743 12.5241 14.5757C12.5293 14.5772 12.5345 14.5785 12.5398 14.5796C12.545 14.5808 12.5503 14.5818 12.5556 14.5827C12.5609 14.5835 12.5663 14.5842 12.5716 14.5848C12.5769 14.5854 12.5823 14.5858 12.5877 14.5861C12.593 14.5864 12.5984 14.5866 12.6038 14.5866C12.6092 14.5866 12.6146 14.5864 12.6199 14.5862C12.6253 14.5859 12.6306 14.5854 12.636 14.5849C12.6413 14.5843 12.6467 14.5836 12.652 14.5827C12.6573 14.5818 12.6626 14.5808 12.6678 14.5797L14.0832 14.2698C14.0892 14.2685 14.0951 14.267 14.1011 14.2654C14.107 14.2637 14.1128 14.2618 14.1186 14.2598C14.1244 14.2578 14.1301 14.2555 14.1358 14.2531C14.1414 14.2508 14.147 14.2482 14.1525 14.2455C14.158 14.2427 14.1634 14.2398 14.1688 14.2368C14.1741 14.2337 14.1793 14.2305 14.1844 14.2271C14.1895 14.2237 14.1946 14.2201 14.1995 14.2164C14.2044 14.2127 14.2091 14.2089 14.2138 14.2049C14.2185 14.2009 14.223 14.1968 14.2274 14.1925C14.2318 14.1882 14.2361 14.1838 14.2403 14.1793C14.2444 14.1747 14.2484 14.1701 14.2523 14.1653C14.2561 14.1605 14.2598 14.1556 14.2634 14.1506C14.2669 14.1456 14.2703 14.1405 14.2735 14.1353C14.2768 14.13 14.2798 14.1247 14.2828 14.1193C14.2857 14.1139 14.2884 14.1084 14.291 14.1029C14.2936 14.0973 14.2959 14.0916 14.2982 14.0859C14.3004 14.0802 14.3024 14.0744 14.3043 14.0685C14.3062 14.0627 14.3079 14.0568 14.3094 14.0508C14.3109 14.0449 14.3122 14.0389 14.3133 14.0328C14.3144 14.0268 14.3154 14.0207 14.3161 14.0146C14.3169 14.0085 14.3175 14.0024 14.3179 13.9963C14.3182 13.9902 14.3184 13.984 14.3184 13.9779C14.3184 13.9717 14.3182 13.9656 14.3179 13.9595C14.3175 13.9533 14.3169 13.9472 14.3162 13.9411C14.3154 13.935 14.3145 13.929 14.3134 13.9229C14.3122 13.9169 14.3109 13.9109 14.3094 13.9049C14.3079 13.899 14.3063 13.8931 14.3044 13.8872C14.3026 13.8814 14.3005 13.8756 14.2983 13.8699C14.2961 13.8641 14.2937 13.8585 14.2911 13.8529C14.2886 13.8473 14.2858 13.8418 14.2829 13.8364C14.28 13.831 14.277 13.8257 14.2737 13.8204C14.2705 13.8152 14.2671 13.8101 14.2636 13.8051L14.1693 13.6708C14.1673 13.6678 14.1651 13.665 14.163 13.6621C14.1608 13.6593 14.1586 13.6565 14.1564 13.6537C14.1541 13.6509 14.1518 13.6482 14.1494 13.6455C14.1471 13.6429 14.1447 13.6402 14.1422 13.6376C14.1398 13.635 14.1373 13.6325 14.1347 13.63C14.1322 13.6275 14.1296 13.625 14.127 13.6226C14.1243 13.6202 14.1216 13.6178 14.1189 13.6155C14.1162 13.6132 14.1135 13.6109 14.1107 13.6087C14.1079 13.6065 14.105 13.6043 14.1021 13.6022C14.0993 13.6001 14.0964 13.5981 14.0934 13.596C14.0905 13.594 14.0875 13.5921 14.0845 13.5902C14.0814 13.5883 14.0784 13.5864 14.0753 13.5846C14.0722 13.5828 14.0691 13.5811 14.066 13.5794C14.0628 13.5777 14.0596 13.5761 14.0564 13.5745C14.0532 13.573 14.05 13.5714 14.0467 13.57C14.0435 13.5685 14.0402 13.5671 14.0369 13.5658C14.0336 13.5645 14.0302 13.5632 14.0269 13.562C14.0235 13.5608 14.0201 13.5596 14.0167 13.5585C14.0133 13.5574 14.0099 13.5564 14.0065 13.5554C14.0031 13.5544 13.9996 13.5535 13.9961 13.5527C13.9927 13.5518 13.9892 13.551 13.9857 13.5503C13.9822 13.5496 13.9787 13.5489 13.9752 13.5483C13.9717 13.5477 13.9681 13.5472 13.9646 13.5467C13.9611 13.5462 13.9575 13.5458 13.954 13.5455C13.9504 13.5451 13.9468 13.5449 13.9433 13.5446C13.9397 13.5444 13.9362 13.5443 13.9326 13.5442C13.929 13.5441 13.9255 13.544 13.9219 13.5441C13.9183 13.5441 13.9147 13.5442 13.9112 13.5444C13.9076 13.5446 13.9041 13.5448 13.9005 13.5451C13.8969 13.5454 13.8934 13.5457 13.8898 13.5461C13.8863 13.5466 13.8828 13.547 13.8792 13.5476C13.8757 13.5481 13.8722 13.5487 13.8687 13.5494L13.5231 13.6155C13.5177 13.6165 13.5124 13.6174 13.5069 13.6181C13.5015 13.6188 13.4961 13.6194 13.4907 13.6198C13.4852 13.6203 13.4797 13.6205 13.4743 13.6207C13.4688 13.6208 13.4634 13.6208 13.4579 13.6206C13.4525 13.6204 13.447 13.6201 13.4416 13.6196C13.4361 13.6192 13.4307 13.6185 13.4253 13.6178C13.4199 13.617 13.4145 13.6161 13.4091 13.615C13.4038 13.614 13.3984 13.6128 13.3932 13.6114C13.3879 13.6101 13.3826 13.6086 13.3774 13.6069C13.3722 13.6053 13.367 13.6035 13.3619 13.6016C13.3568 13.5997 13.3518 13.5976 13.3468 13.5954C13.3418 13.5932 13.3368 13.5909 13.332 13.5884C13.3271 13.5859 13.3223 13.5833 13.3176 13.5806C13.3128 13.5779 13.3082 13.575 13.3036 13.572C13.299 13.569 13.2945 13.5659 13.2901 13.5627C13.2857 13.5595 13.2814 13.5561 13.2772 13.5527L9.26886 10.2583C9.26627 10.2561 9.26364 10.254 9.26097 10.252C9.25831 10.25 9.25562 10.248 9.25289 10.246C9.25014 10.2441 9.24739 10.2422 9.2446 10.2403C9.2418 10.2384 9.23897 10.2366 9.23613 10.2349C9.23326 10.2331 9.23038 10.2314 9.22747 10.2297C9.22455 10.2281 9.22162 10.2265 9.21865 10.2249C9.21568 10.2233 9.21269 10.2218 9.20967 10.2203C9.20665 10.2189 9.2036 10.2175 9.20054 10.2161C9.19747 10.2147 9.19439 10.2134 9.19128 10.2122C9.18817 10.2109 9.18503 10.2097 9.18188 10.2086C9.17873 10.2074 9.17556 10.2063 9.17239 10.2053C9.16919 10.2042 9.16599 10.2032 9.16276 10.2023C9.15954 10.2013 9.15631 10.2004 9.15306 10.1996C9.1498 10.1988 9.14654 10.198 9.14326 10.1973C9.13999 10.1966 9.1367 10.1959 9.1334 10.1953C9.1301 10.1947 9.12679 10.1941 9.12347 10.1936C9.12015 10.1931 9.11682 10.1927 9.11349 10.1923C9.11017 10.1919 9.10683 10.1916 9.10349 10.1913C9.10014 10.191 9.09679 10.1908 9.09343 10.1907C9.09008 10.1905 9.08673 10.1904 9.08338 10.1904C9.08003 10.1903 9.07666 10.1903 9.07331 10.1904C9.06996 10.1905 9.06661 10.1906 9.06326 10.1908C9.05991 10.1909 9.05655 10.1912 9.05322 10.1915C9.04986 10.1917 9.04654 10.1921 9.04321 10.1925C9.03987 10.1929 9.03655 10.1934 9.03323 10.1939C9.02992 10.1944 9.02662 10.195 9.02332 10.1956C9.02002 10.1962 9.01674 10.1969 9.01347 10.1976C9.01019 10.1984 9.00693 10.1992 9.00369 10.2C9.00044 10.2008 8.9972 10.2017 8.99399 10.2027C8.99077 10.2037 8.98757 10.2047 8.98439 10.2057C8.98121 10.2068 8.97805 10.2079 8.9749 10.2091C8.97175 10.2103 8.96863 10.2115 8.96553 10.2128L7.99595 10.612ZM13.9992 12.8447C13.9981 12.8509 13.9972 12.8571 13.9964 12.8634C13.9957 12.8696 13.9951 12.8759 13.9948 12.8822C13.9944 12.8885 13.9942 12.8948 13.9943 12.9011C13.9943 12.9074 13.9945 12.9136 13.9949 12.9199C13.9953 12.9262 13.9959 12.9325 13.9967 12.9387C13.9975 12.945 13.9985 12.9512 13.9997 12.9574C14.0008 12.9636 14.0022 12.9697 14.0038 12.9758C14.0053 12.9819 14.007 12.988 14.009 12.994C14.0109 13 14.013 13.0059 14.0153 13.0118C14.0176 13.0176 14.0201 13.0234 14.0227 13.0291C14.0254 13.0348 14.0282 13.0405 14.0312 13.046C14.0342 13.0516 14.0373 13.057 14.0406 13.0624C14.044 13.0677 14.0474 13.0729 14.0511 13.0781C14.0547 13.0832 14.0585 13.0882 14.0625 13.0931C14.0665 13.098 14.0706 13.1028 14.0748 13.1075C14.079 13.1121 14.0834 13.1166 14.088 13.121C14.0925 13.1254 14.0971 13.1296 14.1019 13.1337C14.1067 13.1378 14.1116 13.1417 14.1167 13.1455C14.1217 13.1493 14.1268 13.153 14.1321 13.1564C14.1373 13.1599 14.1427 13.1632 14.1481 13.1664C14.1536 13.1695 14.1591 13.1725 14.1648 13.1753C14.1704 13.1781 14.1761 13.1807 14.1819 13.1832C14.1877 13.1856 14.1936 13.1879 14.1995 13.19C14.2055 13.1921 14.2115 13.194 14.2175 13.1958C14.2236 13.1975 14.2297 13.199 14.2358 13.2004C14.242 13.2017 14.2482 13.2029 14.2544 13.2039C14.2606 13.2048 14.2669 13.2056 14.2731 13.2062C14.2794 13.2068 14.2857 13.2072 14.292 13.2074C14.2983 13.2076 14.3046 13.2076 14.3109 13.2074C14.3172 13.2072 14.3234 13.2069 14.3297 13.2063C14.336 13.2057 14.3422 13.205 14.3485 13.204C14.3547 13.203 14.3609 13.2019 14.367 13.2006L16.9378 12.6454C16.9433 12.6442 16.9487 12.6429 16.9541 12.6414C16.9595 12.6399 16.9649 12.6383 16.9702 12.6365C16.9756 12.6347 16.9808 12.6328 16.9861 12.6307C16.9913 12.6287 16.9965 12.6265 17.0016 12.6241C17.0067 12.6218 17.0117 12.6193 17.0167 12.6167C17.0216 12.614 17.0265 12.6113 17.0313 12.6084C17.0362 12.6055 17.0409 12.6025 17.0455 12.5993C17.0502 12.5962 17.0548 12.5929 17.0592 12.5895C17.0637 12.5861 17.0681 12.5826 17.0723 12.5789C17.0766 12.5753 17.0808 12.5715 17.0849 12.5677C17.0889 12.5638 17.0929 12.5598 17.0968 12.5558C17.1006 12.5517 17.1043 12.5475 17.108 12.5432C17.1116 12.5389 17.1151 12.5345 17.1185 12.53C17.1219 12.5256 17.1251 12.521 17.1283 12.5163C17.1314 12.5117 17.1344 12.5069 17.1373 12.5021C17.1402 12.4973 17.1429 12.4924 17.1455 12.4874C17.1481 12.4824 17.1506 12.4774 17.1529 12.4723C17.1552 12.4672 17.1574 12.462 17.1595 12.4568C17.1615 12.4515 17.1634 12.4462 17.1652 12.4409C17.1669 12.4356 17.1685 12.4302 17.17 12.4248C17.1715 12.4193 17.1728 12.4139 17.174 12.4084C17.1751 12.4029 17.1761 12.3974 17.177 12.3918C17.1779 12.3863 17.1786 12.3807 17.1791 12.3751C17.1797 12.3695 17.1801 12.3639 17.1803 12.3583C17.1806 12.3527 17.1807 12.3471 17.1806 12.3415C17.1806 12.3359 17.1804 12.3303 17.18 12.3247C17.1796 12.319 17.1791 12.3134 17.1784 12.3079C17.1778 12.3023 17.177 12.2968 17.176 12.2912C17.175 12.2857 17.1739 12.2802 17.1726 12.2747C17.1713 12.2692 17.1699 12.2638 17.1683 12.2584C17.1668 12.253 17.165 12.2477 17.1632 12.2424C17.1613 12.2371 17.1593 12.2318 17.1571 12.2267L16.5689 10.8129C16.5671 10.8086 16.5653 10.8044 16.5633 10.8003C16.5614 10.7961 16.5593 10.792 16.5572 10.7879C16.5551 10.7838 16.5528 10.7798 16.5505 10.7758C16.5482 10.7718 16.5458 10.7679 16.5433 10.764C16.5408 10.7601 16.5382 10.7563 16.5356 10.7526C16.5329 10.7488 16.5302 10.7451 16.5273 10.7415C16.5245 10.7378 16.5216 10.7343 16.5186 10.7308C16.5156 10.7273 16.5125 10.7238 16.5094 10.7205C16.5063 10.7171 16.503 10.7138 16.4997 10.7106C16.4964 10.7074 16.4931 10.7042 16.4897 10.7012C16.4862 10.6981 16.4827 10.6951 16.4792 10.6922C16.4756 10.6893 16.4719 10.6864 16.4683 10.6837C16.4646 10.6809 16.4608 10.6783 16.457 10.6757C16.4532 10.6731 16.4493 10.6706 16.4454 10.6682C16.4414 10.6658 16.4375 10.6635 16.4334 10.6613C16.4294 10.659 16.4253 10.6569 16.4212 10.6549C16.4171 10.6528 16.4129 10.6509 16.4087 10.649C16.4045 10.6471 16.4002 10.6454 16.3959 10.6437C16.3916 10.642 16.3873 10.6405 16.3829 10.639C16.3786 10.6375 16.3742 10.6362 16.3698 10.6349C16.3653 10.6336 16.3609 10.6324 16.3564 10.6314C16.3519 10.6303 16.3474 10.6293 16.3429 10.6284C16.3384 10.6276 16.3338 10.6268 16.3293 10.6261C16.3247 10.6255 16.3201 10.6249 16.3156 10.6244C16.311 10.624 16.3064 10.6236 16.3018 10.6233C16.2972 10.6231 16.2926 10.6229 16.288 10.6229C16.2834 10.6228 16.2788 10.6229 16.2742 10.623C16.2696 10.6232 16.265 10.6235 16.2604 10.6238C16.2558 10.6242 16.2512 10.6246 16.2466 10.6252C16.2421 10.6258 16.2375 10.6265 16.233 10.6272C16.2284 10.628 16.2239 10.6289 16.2194 10.6299C16.2149 10.6308 16.2104 10.6319 16.206 10.6331L14.4997 11.0865C14.4962 11.0874 14.4927 11.0884 14.4893 11.0894C14.4858 11.0905 14.4824 11.0916 14.4789 11.0928C14.4755 11.094 14.4721 11.0952 14.4687 11.0965C14.4653 11.0978 14.462 11.0991 14.4586 11.1006C14.4553 11.102 14.452 11.1034 14.4487 11.105C14.4454 11.1065 14.4422 11.1081 14.4389 11.1097C14.4357 11.1114 14.4325 11.1131 14.4293 11.1148C14.4262 11.1166 14.423 11.1184 14.4199 11.1203C14.4168 11.1222 14.4137 11.1241 14.4107 11.1261C14.4077 11.128 14.4047 11.1301 14.4017 11.1322C14.3987 11.1342 14.3958 11.1364 14.3929 11.1386C14.39 11.1407 14.3872 11.143 14.3844 11.1453C14.3816 11.1476 14.3788 11.1499 14.3761 11.1523C14.3733 11.1547 14.3707 11.1571 14.368 11.1596C14.3654 11.1621 14.3628 11.1646 14.3602 11.1672C14.3577 11.1697 14.3552 11.1724 14.3527 11.175C14.3503 11.1777 14.3478 11.1804 14.3455 11.1831C14.3431 11.1859 14.3408 11.1887 14.3385 11.1915C14.3363 11.1943 14.3341 11.1972 14.3319 11.2001C14.3297 11.203 14.3276 11.206 14.3256 11.2089C14.3235 11.2119 14.3215 11.215 14.3195 11.218C14.3176 11.221 14.3157 11.2241 14.3138 11.2273C14.312 11.2304 14.3102 11.2335 14.3085 11.2367C14.3067 11.2399 14.3051 11.2431 14.3034 11.2464C14.3018 11.2496 14.3003 11.2529 14.2988 11.2562C14.2973 11.2595 14.2958 11.2628 14.2944 11.2661C14.293 11.2695 14.2917 11.2728 14.2904 11.2762C14.2892 11.2796 14.288 11.2831 14.2868 11.2865C14.2857 11.2899 14.2846 11.2934 14.2836 11.2969C14.2825 11.3004 14.2816 11.3038 14.2807 11.3073C14.2798 11.3109 14.2789 11.3144 14.2782 11.3179C14.2774 11.3215 14.2767 11.325 14.276 11.3286L13.9998 12.8453L13.9992 12.8447ZM6.81999 12.4027C6.81858 12.4064 6.81725 12.41 6.81599 12.4137C6.81473 12.4174 6.81354 12.4211 6.81243 12.4249C6.81132 12.4286 6.81028 12.4324 6.80931 12.4362C6.80834 12.44 6.80745 12.4438 6.80663 12.4476C6.80581 12.4514 6.80507 12.4552 6.8044 12.4591C6.80374 12.4629 6.80314 12.4668 6.80263 12.4707C6.80211 12.4745 6.80167 12.4784 6.80131 12.4823C6.80094 12.4862 6.80065 12.4901 6.80044 12.494C6.80023 12.4979 6.8001 12.5018 6.80004 12.5057C6.79998 12.5096 6.8 12.5135 6.80009 12.5174C6.80018 12.5213 6.80036 12.5252 6.8006 12.5291C6.80085 12.533 6.80117 12.5369 6.80157 12.5408C6.80197 12.5447 6.80245 12.5485 6.803 12.5524C6.80355 12.5563 6.80418 12.5601 6.80488 12.564C6.80558 12.5678 6.80636 12.5716 6.80721 12.5754C6.80806 12.5793 6.80899 12.583 6.80999 12.5868C6.81099 12.5906 6.81207 12.5944 6.81322 12.5981C6.81436 12.6018 6.81559 12.6055 6.81688 12.6092C6.81817 12.6129 6.81954 12.6166 6.82097 12.6202C6.82241 12.6238 6.82392 12.6274 6.8255 12.631C6.82707 12.6346 6.82872 12.6381 6.83044 12.6416C6.83215 12.6451 6.83394 12.6486 6.83579 12.652C6.83764 12.6555 6.83956 12.6589 6.84155 12.6622C6.84354 12.6656 6.84559 12.6689 6.8477 12.6722C6.84982 12.6755 6.852 12.6787 6.85424 12.6819C6.85649 12.6851 6.85879 12.6883 6.86116 12.6914C6.86352 12.6945 6.86595 12.6975 6.86844 12.7006C6.87092 12.7036 6.87347 12.7065 6.87607 12.7094C6.87867 12.7123 6.88133 12.7152 6.88405 12.718C6.88676 12.7208 6.88953 12.7236 6.89235 12.7263C6.89518 12.729 6.89805 12.7316 6.90098 12.7342C6.9039 12.7368 6.90688 12.7393 6.9099 12.7418L11.6164 16.5925C11.7892 16.7333 12.0498 16.6429 12.0985 16.4246L12.3997 15.0531C12.4005 15.0496 12.4012 15.0462 12.4018 15.0427C12.4025 15.0392 12.403 15.0357 12.4036 15.0322C12.4041 15.0287 12.4045 15.0252 12.4049 15.0217C12.4053 15.0182 12.4057 15.0147 12.4059 15.0111C12.4062 15.0076 12.4064 15.0041 12.4066 15.0005C12.4067 14.997 12.4068 14.9935 12.4068 14.9899C12.4068 14.9864 12.4068 14.9829 12.4067 14.9793C12.4066 14.9758 12.4064 14.9723 12.4062 14.9687C12.406 14.9652 12.4057 14.9617 12.4053 14.9582C12.405 14.9546 12.4045 14.9511 12.4041 14.9476C12.4036 14.9441 12.403 14.9406 12.4025 14.9371C12.4018 14.9336 12.4012 14.9302 12.4004 14.9267C12.3997 14.9232 12.3989 14.9198 12.3981 14.9164C12.3972 14.9129 12.3963 14.9095 12.3954 14.9061C12.3944 14.9027 12.3934 14.8993 12.3923 14.896C12.3912 14.8926 12.39 14.8892 12.3888 14.8859C12.3876 14.8826 12.3863 14.8793 12.385 14.876C12.3837 14.8727 12.3823 14.8695 12.3809 14.8662C12.3794 14.863 12.3779 14.8598 12.3764 14.8566C12.3748 14.8535 12.3732 14.8503 12.3715 14.8472C12.3699 14.8441 12.3681 14.841 12.3664 14.8379C12.3646 14.8349 12.3627 14.8318 12.3609 14.8288C12.359 14.8259 12.357 14.8229 12.355 14.82C12.3531 14.817 12.351 14.8141 12.3489 14.8113C12.3468 14.8084 12.3447 14.8056 12.3425 14.8028C12.3403 14.8001 12.3381 14.7973 12.3358 14.7946C12.3335 14.7919 12.3312 14.7893 12.3288 14.7867C12.3264 14.7841 12.3239 14.7815 12.3215 14.779C12.319 14.7764 12.3165 14.774 12.3139 14.7715C12.3114 14.7691 12.3087 14.7667 12.3061 14.7643C12.3035 14.762 12.3008 14.7597 12.298 14.7574C12.2953 14.7552 12.2925 14.753 12.2897 14.7508L7.68611 11.2203C7.68151 11.2167 7.67682 11.2133 7.67203 11.2101C7.66724 11.2068 7.66235 11.2037 7.65738 11.2007C7.65241 11.1977 7.64736 11.1949 7.64222 11.1922C7.63708 11.1895 7.63187 11.187 7.62658 11.1846C7.6213 11.1822 7.61595 11.18 7.61053 11.1779C7.60511 11.1759 7.59964 11.174 7.59412 11.1722C7.5886 11.1705 7.58303 11.1689 7.57741 11.1674C7.57179 11.166 7.56613 11.1648 7.56044 11.1637C7.55475 11.1626 7.54903 11.1616 7.54328 11.1609C7.53754 11.1601 7.53178 11.1595 7.526 11.1591C7.52022 11.1586 7.51443 11.1584 7.50863 11.1583C7.50284 11.1582 7.49705 11.1583 7.49125 11.1585C7.48546 11.1587 7.47968 11.1592 7.47392 11.1598C7.46815 11.1603 7.4624 11.1611 7.45668 11.162C7.45095 11.1629 7.44526 11.164 7.4396 11.1652C7.43394 11.1665 7.42832 11.1679 7.42274 11.1695C7.41716 11.171 7.41163 11.1728 7.40615 11.1746C7.40067 11.1765 7.39526 11.1786 7.3899 11.1808C7.38454 11.183 7.37925 11.1854 7.37402 11.1879C7.3688 11.1904 7.36366 11.1931 7.35859 11.1959C7.35353 11.1987 7.34855 11.2017 7.34365 11.2048C7.33876 11.2079 7.33396 11.2111 7.32925 11.2145C7.32454 11.2179 7.31994 11.2214 7.31544 11.2251C7.31094 11.2287 7.30655 11.2325 7.30226 11.2364C7.29798 11.2403 7.29382 11.2443 7.28977 11.2485C7.28572 11.2526 7.2818 11.2569 7.278 11.2613C7.2742 11.2656 7.27053 11.2701 7.26699 11.2747C7.26346 11.2793 7.26005 11.284 7.25679 11.2888C7.25352 11.2936 7.2504 11.2984 7.24741 11.3034C7.24443 11.3084 7.2416 11.3134 7.23891 11.3186C7.23622 11.3237 7.23369 11.3289 7.2313 11.3342C7.22892 11.3395 7.22668 11.3448 7.22461 11.3503L6.81999 12.4027L6.81999 12.4027ZM15.7521 15.6321C15.7516 15.6375 15.7512 15.6429 15.7511 15.6483C15.7509 15.6536 15.7508 15.659 15.751 15.6644C15.7511 15.6698 15.7514 15.6752 15.7519 15.6806C15.7523 15.6859 15.7529 15.6913 15.7537 15.6966C15.7544 15.7019 15.7554 15.7073 15.7564 15.7125C15.7575 15.7178 15.7588 15.7231 15.7601 15.7283C15.7615 15.7335 15.7631 15.7386 15.7648 15.7438C15.7664 15.7489 15.7683 15.7539 15.7703 15.759C15.7723 15.764 15.7744 15.7689 15.7767 15.7738C15.7789 15.7787 15.7814 15.7835 15.7839 15.7882C15.7865 15.793 15.7892 15.7976 15.792 15.8022C15.7949 15.8068 15.7978 15.8113 15.8009 15.8157C15.804 15.8201 15.8072 15.8244 15.8106 15.8287C15.8139 15.8329 15.8174 15.837 15.821 15.841C15.8246 15.845 15.8283 15.8489 15.8321 15.8527C15.836 15.8565 15.8399 15.8602 15.8439 15.8638C15.848 15.8674 15.8521 15.8708 15.8564 15.8741C15.8606 15.8774 15.8649 15.8806 15.8694 15.8837C15.8738 15.8868 15.8783 15.8897 15.8829 15.8925C15.8875 15.8953 15.8922 15.898 15.897 15.9005C15.9017 15.903 15.9066 15.9054 15.9115 15.9077C15.9164 15.9099 15.9213 15.912 15.9263 15.914C15.9314 15.9159 15.9364 15.9177 15.9416 15.9194C15.9467 15.921 15.9519 15.9226 15.9571 15.9239C15.9623 15.9252 15.9676 15.9264 15.9728 15.9275C15.9781 15.9285 15.9834 15.9294 15.9888 15.9301C15.9941 15.9309 15.9995 15.9314 16.0049 15.9319C16.0102 15.9323 16.0156 15.9325 16.021 15.9326C16.0264 15.9327 16.0318 15.9327 16.0372 15.9325C16.0425 15.9322 16.0479 15.9319 16.0533 15.9313C16.0586 15.9308 16.064 15.9301 16.0693 15.9293C16.0746 15.9284 16.0799 15.9274 16.0852 15.9263L18.501 15.3965C18.5056 15.3955 18.5102 15.3943 18.5148 15.3931C18.5194 15.3918 18.5239 15.3905 18.5284 15.389C18.5329 15.3875 18.5373 15.3859 18.5417 15.3842C18.5461 15.3825 18.5505 15.3807 18.5548 15.3787C18.5591 15.3768 18.5634 15.3747 18.5676 15.3726C18.5718 15.3704 18.5759 15.3681 18.58 15.3658C18.5841 15.3634 18.5882 15.3609 18.5921 15.3583C18.5961 15.3558 18.6 15.3531 18.6038 15.3503C18.6076 15.3475 18.6114 15.3446 18.6151 15.3417C18.6187 15.3387 18.6223 15.3356 18.6259 15.3325C18.6294 15.3293 18.6328 15.326 18.6362 15.3227C18.6395 15.3194 18.6428 15.3159 18.6459 15.3124C18.6491 15.3089 18.6522 15.3053 18.6552 15.3017C18.6582 15.298 18.6611 15.2943 18.6639 15.2905C18.6667 15.2867 18.6694 15.2828 18.672 15.2788C18.6746 15.2748 18.6771 15.2708 18.6794 15.2668C18.6818 15.2627 18.6841 15.2585 18.6863 15.2543C18.6885 15.2501 18.6905 15.2459 18.6925 15.2416C18.6944 15.2373 18.6963 15.2329 18.698 15.2285C18.6998 15.2241 18.7014 15.2197 18.7029 15.2152C18.7044 15.2107 18.7058 15.2062 18.707 15.2016C18.7083 15.1971 18.7095 15.1925 18.7105 15.1879C18.7115 15.1833 18.7124 15.1786 18.7132 15.174C18.714 15.1693 18.7147 15.1646 18.7153 15.1599C18.7158 15.1552 18.7162 15.1505 18.7165 15.1458C18.7169 15.1411 18.717 15.1363 18.7171 15.1316C18.7172 15.1269 18.7171 15.1221 18.7169 15.1174C18.7168 15.1127 18.7165 15.108 18.7161 15.1033C18.7156 15.0985 18.7151 15.0939 18.7144 15.0892C18.7138 15.0845 18.713 15.0798 18.7121 15.0752C18.7112 15.0705 18.7102 15.0659 18.709 15.0613C18.7079 15.0567 18.7066 15.0522 18.7052 15.0477L18.2741 13.6345C18.2728 13.6304 18.2715 13.6263 18.27 13.6223C18.2686 13.6183 18.2671 13.6143 18.2655 13.6104C18.2638 13.6064 18.2621 13.6025 18.2603 13.5987C18.2585 13.5948 18.2566 13.591 18.2547 13.5872C18.2527 13.5834 18.2506 13.5797 18.2485 13.576C18.2463 13.5724 18.2441 13.5687 18.2418 13.5652C18.2394 13.5616 18.237 13.5581 18.2346 13.5546C18.2321 13.5511 18.2295 13.5477 18.2269 13.5444C18.2242 13.541 18.2215 13.5378 18.2187 13.5345C18.2159 13.5313 18.2131 13.5282 18.2101 13.5251C18.2072 13.522 18.2042 13.519 18.2011 13.5161C18.198 13.5131 18.1949 13.5102 18.1917 13.5074C18.1884 13.5046 18.1852 13.5019 18.1818 13.4993C18.1785 13.4966 18.1751 13.4941 18.1716 13.4916C18.1681 13.4891 18.1646 13.4867 18.1611 13.4843C18.1575 13.482 18.1539 13.4798 18.1502 13.4776C18.1465 13.4755 18.1428 13.4734 18.139 13.4714C18.1352 13.4694 18.1314 13.4675 18.1276 13.4657C18.1237 13.4639 18.1198 13.4622 18.1159 13.4606C18.1119 13.4589 18.108 13.4574 18.104 13.456C18.0999 13.4545 18.0959 13.4532 18.0918 13.4519C18.0877 13.4507 18.0837 13.4495 18.0795 13.4485C18.0754 13.4474 18.0712 13.4464 18.0671 13.4456C18.0629 13.4447 18.0587 13.4439 18.0545 13.4432C18.0503 13.4426 18.0461 13.442 18.0418 13.4415C18.0376 13.441 18.0334 13.4406 18.0291 13.4404C18.0248 13.4401 18.0206 13.4399 18.0163 13.4398C18.0121 13.4397 18.0078 13.4397 18.0036 13.4399C17.9993 13.44 17.995 13.4402 17.9908 13.4405C17.9865 13.4408 17.9823 13.4412 17.9781 13.4417C17.9738 13.4422 17.9696 13.4428 17.9654 13.4435C17.9612 13.4443 17.957 13.4451 17.9529 13.446L16.1123 13.843C16.1087 13.8438 16.1052 13.8446 16.1017 13.8455C16.0981 13.8464 16.0947 13.8474 16.0912 13.8484C16.0877 13.8495 16.0842 13.8506 16.0808 13.8518C16.0774 13.8529 16.0739 13.8542 16.0706 13.8555C16.0672 13.8568 16.0638 13.8582 16.0605 13.8596C16.0572 13.8611 16.0539 13.8626 16.0506 13.8642C16.0473 13.8658 16.0441 13.8674 16.0409 13.8691C16.0377 13.8708 16.0345 13.8726 16.0314 13.8744C16.0282 13.8762 16.0251 13.8781 16.0221 13.8801C16.019 13.882 16.016 13.8841 16.013 13.8861C16.01 13.8882 16.0071 13.8903 16.0042 13.8925C16.0013 13.8947 15.9984 13.897 15.9956 13.8993C15.9928 13.9016 15.9901 13.9039 15.9874 13.9063C15.9846 13.9088 15.982 13.9112 15.9794 13.9137C15.9767 13.9163 15.9742 13.9188 15.9716 13.9215C15.9691 13.9241 15.9667 13.9267 15.9643 13.9295C15.9619 13.9322 15.9595 13.9349 15.9572 13.9378C15.9549 13.9406 15.9527 13.9434 15.9505 13.9463C15.9483 13.9492 15.9461 13.9521 15.9441 13.9551C15.942 13.9581 15.94 13.9611 15.9381 13.9642C15.9361 13.9673 15.9342 13.9704 15.9324 13.9735C15.9306 13.9767 15.9288 13.9798 15.9271 13.983C15.9254 13.9862 15.9237 13.9895 15.9222 13.9928C15.9206 13.996 15.9191 13.9993 15.9176 14.0027C15.9162 14.006 15.9148 14.0094 15.9135 14.0127C15.9122 14.0161 15.911 14.0195 15.9098 14.023C15.9086 14.0264 15.9075 14.0299 15.9065 14.0334C15.9054 14.0368 15.9045 14.0403 15.9036 14.0439C15.9027 14.0474 15.9018 14.0509 15.9011 14.0545C15.9003 14.058 15.8996 14.0616 15.899 14.0652C15.8984 14.0687 15.8978 14.0723 15.8974 14.0759C15.8969 14.0795 15.8965 14.0831 15.8961 14.0868L15.7526 15.6316L15.7521 15.6321ZM12.3314 16.4593C12.3303 16.4654 12.3293 16.4715 12.3286 16.4777C12.3278 16.4839 12.3272 16.4901 12.3268 16.4963C12.3264 16.5025 12.3262 16.5087 12.3262 16.515C12.3262 16.5212 12.3264 16.5274 12.3268 16.5337C12.3272 16.5399 12.3278 16.5461 12.3286 16.5522C12.3294 16.5584 12.3303 16.5646 12.3315 16.5707C12.3327 16.5768 12.334 16.5829 12.3355 16.5889C12.3371 16.595 12.3388 16.601 12.3407 16.6069C12.3426 16.6128 12.3447 16.6187 12.347 16.6245C12.3493 16.6303 12.3517 16.636 12.3544 16.6416C12.357 16.6473 12.3598 16.6528 12.3628 16.6583C12.3658 16.6638 12.3689 16.6691 12.3723 16.6744C12.3756 16.6797 12.3791 16.6849 12.3827 16.6899C12.3863 16.695 12.3901 16.6999 12.3941 16.7047C12.398 16.7095 12.4021 16.7142 12.4064 16.7188C12.4106 16.7233 12.415 16.7278 12.4195 16.7321C12.424 16.7364 12.4287 16.7405 12.4335 16.7445C12.4382 16.7485 12.4431 16.7523 12.4482 16.756C12.4532 16.7597 12.4583 16.7633 12.4635 16.7666C12.4688 16.77 12.4741 16.7732 12.4795 16.7763C12.485 16.7793 12.4905 16.7822 12.4961 16.7849C12.5017 16.7876 12.5074 16.7901 12.5132 16.7924C12.519 16.7948 12.5248 16.7969 12.5307 16.7989C12.5366 16.8009 12.5426 16.8027 12.5486 16.8043C12.5546 16.8059 12.5607 16.8073 12.5668 16.8085C12.5729 16.8097 12.5791 16.8108 12.5852 16.8116C12.5914 16.8125 12.5976 16.8131 12.6038 16.8136C12.61 16.814 12.6162 16.8143 12.6225 16.8144C12.6287 16.8144 12.6349 16.8143 12.6411 16.814C12.6474 16.8137 12.6536 16.8132 12.6598 16.8125C12.6659 16.8118 12.6721 16.8109 12.6782 16.8098C12.6844 16.8087 12.6905 16.8074 12.6965 16.8059L14.9964 16.2426C15.0017 16.2413 15.0069 16.2399 15.0121 16.2383C15.0173 16.2367 15.0224 16.235 15.0275 16.2332C15.0326 16.2313 15.0377 16.2293 15.0426 16.2272C15.0476 16.2251 15.0525 16.2229 15.0574 16.2205C15.0623 16.2181 15.0671 16.2156 15.0718 16.2129C15.0765 16.2103 15.0812 16.2075 15.0858 16.2046C15.0903 16.2017 15.0948 16.1987 15.0992 16.1955C15.1036 16.1924 15.1079 16.1891 15.1122 16.1857C15.1164 16.1823 15.1206 16.1788 15.1246 16.1752C15.1286 16.1716 15.1326 16.1679 15.1364 16.1641C15.1403 16.1603 15.144 16.1563 15.1476 16.1523C15.1513 16.1483 15.1548 16.1442 15.1582 16.14C15.1616 16.1358 15.1649 16.1315 15.168 16.1271C15.1712 16.1227 15.1743 16.1182 15.1772 16.1136C15.1801 16.1091 15.1829 16.1044 15.1856 16.0997C15.1883 16.095 15.1908 16.0902 15.1932 16.0854C15.1956 16.0805 15.1979 16.0756 15.2001 16.0707C15.2022 16.0657 15.2042 16.0606 15.2061 16.0556C15.208 16.0505 15.2097 16.0454 15.2113 16.0402C15.2129 16.035 15.2144 16.0298 15.2157 16.0245C15.217 16.0193 15.2182 16.014 15.2192 16.0087C15.2202 16.0033 15.2211 15.998 15.2218 15.9926C15.2225 15.9873 15.2231 15.9819 15.2236 15.9765C15.224 15.9711 15.2243 15.9657 15.2245 15.9603C15.2246 15.9548 15.2246 15.9494 15.2245 15.944C15.2243 15.9386 15.224 15.9332 15.2236 15.9278C15.2231 15.9224 15.2226 15.917 15.2218 15.9116C15.2211 15.9063 15.2202 15.9009 15.2192 15.8956C15.2182 15.8903 15.217 15.885 15.2157 15.8798C15.2144 15.8745 15.2129 15.8693 15.2113 15.8641C15.2097 15.8589 15.208 15.8538 15.2061 15.8487C15.2043 15.8436 15.2022 15.8386 15.2001 15.8336L14.692 14.6544C14.6903 14.6505 14.6885 14.6466 14.6867 14.6427C14.6848 14.6388 14.6829 14.635 14.6809 14.6312C14.6788 14.6274 14.6767 14.6237 14.6745 14.62C14.6724 14.6163 14.6701 14.6126 14.6678 14.609C14.6654 14.6054 14.663 14.6019 14.6605 14.5984C14.658 14.5949 14.6554 14.5915 14.6528 14.5881C14.6501 14.5847 14.6474 14.5814 14.6446 14.5781C14.6418 14.5748 14.639 14.5716 14.6361 14.5685C14.6331 14.5653 14.6301 14.5623 14.6271 14.5593C14.624 14.5562 14.6209 14.5533 14.6177 14.5504C14.6145 14.5475 14.6113 14.5447 14.608 14.542C14.6047 14.5392 14.6013 14.5366 14.5979 14.534C14.5944 14.5314 14.591 14.5289 14.5874 14.5264C14.5839 14.524 14.5803 14.5216 14.5767 14.5193C14.5731 14.517 14.5694 14.5148 14.5657 14.5127C14.5619 14.5106 14.5581 14.5085 14.5543 14.5065C14.5505 14.5046 14.5466 14.5027 14.5428 14.5009C14.5389 14.4991 14.5349 14.4973 14.531 14.4957C14.527 14.4941 14.523 14.4925 14.5189 14.4911C14.5149 14.4896 14.5108 14.4882 14.5067 14.487C14.5026 14.4857 14.4985 14.4845 14.4944 14.4834C14.4902 14.4823 14.486 14.4812 14.4819 14.4803C14.4777 14.4794 14.4734 14.4785 14.4692 14.4778C14.465 14.477 14.4607 14.4764 14.4565 14.4758C14.4522 14.4753 14.448 14.4748 14.4437 14.4744C14.4394 14.474 14.4351 14.4737 14.4308 14.4736C14.4265 14.4734 14.4222 14.4733 14.418 14.4733C14.4137 14.4732 14.4094 14.4733 14.4051 14.4735C14.4008 14.4737 14.3965 14.4739 14.3922 14.4743C14.3879 14.4746 14.3837 14.4751 14.3794 14.4757C14.3751 14.4762 14.3709 14.4768 14.3667 14.4776C14.3624 14.4783 14.3582 14.4791 14.354 14.48L12.8336 14.8077C12.83 14.8085 12.8265 14.8093 12.8229 14.8102C12.8194 14.8111 12.8159 14.8121 12.8124 14.8131C12.8089 14.8141 12.8054 14.8152 12.802 14.8164C12.7985 14.8175 12.7951 14.8188 12.7917 14.82C12.7882 14.8213 12.7849 14.8227 12.7815 14.8241C12.7781 14.8255 12.7748 14.8269 12.7715 14.8285C12.7682 14.83 12.7649 14.8316 12.7617 14.8332C12.7584 14.8349 12.7552 14.8366 12.752 14.8383C12.7488 14.8401 12.7457 14.8419 12.7425 14.8438C12.7394 14.8457 12.7363 14.8476 12.7333 14.8496C12.7302 14.8516 12.7272 14.8536 12.7242 14.8557C12.7213 14.8578 12.7183 14.86 12.7154 14.8622C12.7125 14.8644 12.7097 14.8667 12.7069 14.869C12.704 14.8713 12.7013 14.8737 12.6985 14.8761C12.6958 14.8785 12.6931 14.8809 12.6905 14.8835C12.6879 14.886 12.6853 14.8885 12.6827 14.8911C12.6802 14.8937 12.6777 14.8964 12.6752 14.8991C12.6728 14.9018 12.6704 14.9045 12.668 14.9073C12.6657 14.9101 12.6634 14.9129 12.6611 14.9158C12.6589 14.9187 12.6567 14.9216 12.6546 14.9245C12.6524 14.9275 12.6503 14.9304 12.6483 14.9335C12.6463 14.9365 12.6443 14.9396 12.6424 14.9426C12.6404 14.9457 12.6386 14.9489 12.6368 14.952C12.635 14.9552 12.6332 14.9584 12.6315 14.9616C12.6299 14.9649 12.6282 14.9681 12.6267 14.9714C12.6251 14.9747 12.6236 14.978 12.6221 14.9813C12.6207 14.9847 12.6193 14.988 12.618 14.9915C12.6166 14.9948 12.6154 14.9983 12.6142 15.0017C12.613 15.0051 12.6118 15.0086 12.6108 15.0121C12.6097 15.0156 12.6087 15.0191 12.6077 15.0226C12.6068 15.0261 12.6059 15.0296 12.6051 15.0332C12.6043 15.0367 12.6035 15.0403 12.6028 15.0439L12.3314 16.4593Z"   fill="#FFFFFF" >
</path>
</svg>
