<svg xmlns="http://www.w3.org/2000/svg" viewBox="0 0 200 220" width="200" height="220">
  <!-- 快乐组排 Happy Squad - headset, thumbs up, bright expression, team jersey -->
  <!-- Head -->
  <polygon points="74,22 126,22 130,50 128,82 72,82 70,50" fill="#F2D0A4"/>
  <polygon points="126,22 130,50 128,82 122,80 125,50 122,24" fill="#E8BE8C"/>
  <!-- Hair -->
  <polygon points="72,22 128,22 126,34 74,34" fill="#4A3728"/>
  <polygon points="70,18 74,22 128,22 130,18 122,15 78,15" fill="#4A3728"/>
  <!-- Headset -->
  <polygon points="66,35 72,32 74,52 68,52" fill="#E74C3C"/>
  <polygon points="126,32 134,35 132,52 128,52" fill="#E74C3C"/>
  <polygon points="66,28 134,28 132,32 68,32" fill="#E74C3C"/>
  <!-- Headset mic -->
  <polygon points="66,52 58,55 55,65 62,67 66,58" fill="#C0C0C0"/>
  <!-- Eyes - super happy -->
  <polygon points="80,48 92,44 90,52 82,54" fill="#2C2C2C"/>
  <polygon points="108,44 120,48 118,54 110,52" fill="#2C2C2C"/>
  <!-- Blush -->
  <polygon points="72,54 82,52 80,60 70,58" fill="#F5A0A0" opacity="0.5"/>
  <polygon points="118,52 128,54 130,58 120,60" fill="#F5A0A0" opacity="0.5"/>
  <!-- Big open smile -->
  <polygon points="86,64 114,64 110,76 90,76" fill="#333"/>
  <polygon points="90,65 110,65 108,69 92,69" fill="white"/>
  <!-- Neck -->
  <polygon points="90,82 110,82 112,92 88,92" fill="#E8BE8C"/>
  <!-- Body - team jersey -->
  <polygon points="58,92 142,92 146,172 54,172" fill="#D4A017"/>
  <polygon points="142,92 146,172 138,170 135,94" fill="#B8900F"/>
  <!-- Jersey number -->
  <text x="88" y="138" font-family="sans-serif" font-weight="bold" font-size="28" fill="white">66</text>
  <!-- Collar -->
  <polygon points="82,92 118,92 115,100 85,100" fill="#B8900F"/>
  <!-- Left arm - thumbs up -->
  <polygon points="58,92 35,108 28,95 38,80 48,86" fill="#D4A017"/>
  <!-- Thumb up -->
  <polygon points="28,90 36,78 34,70 26,80" fill="#F2D0A4"/>
  <polygon points="26,88 34,82 36,78 28,84" fill="#F2D0A4"/>
  <!-- Fist -->
  <polygon points="28,88 38,82 40,92 30,96" fill="#F2D0A4"/>
  <!-- Right arm waving -->
  <polygon points="142,92 165,80 172,90 168,95 158,100 145,98" fill="#B8900F"/>
  <!-- Waving hand -->
  <polygon points="168,82 180,75 182,85 172,90" fill="#F2D0A4"/>
  <!-- Shorts -->
  <polygon points="60,172 95,172 92,200 56,200" fill="white"/>
  <polygon points="105,172 140,172 144,200 108,200" fill="#E8E8E8"/>
  <!-- Legs -->
  <polygon points="58,198 90,198 88,212 56,212" fill="#F2D0A4"/>
  <polygon points="110,198 142,198 144,212 108,212" fill="#E8BE8C"/>
  <!-- Sneakers -->
  <polygon points="52,210 92,210 94,220 48,220" fill="#E74C3C"/>
  <polygon points="106,210 148,210 150,220 102,220" fill="#C0392B"/>
</svg>