<svg xmlns="http://www.w3.org/2000/svg" viewBox="0 0 200 220" width="200" height="220">
  <!-- 跑毒专业户 Zone Runner - gas mask, running pose, blue zone glow -->
  <!-- Blue zone glow behind -->
  <polygon points="0,40 30,0 50,60 10,80" fill="#2980B9" opacity="0.3"/>
  <polygon points="0,80 10,60 20,120 0,130" fill="#3498DB" opacity="0.2"/>
  <!-- Head -->
  <polygon points="78,22 128,22 132,50 130,78 74,78 72,50" fill="#F2D0A4"/>
  <polygon points="128,22 132,50 130,78 124,76 127,50 124,24" fill="#E8BE8C"/>
  <!-- Hair windswept -->
  <polygon points="72,22 130,22 135,18 140,22 132,30 72,30 68,25" fill="#3A3A3A"/>
  <polygon points="135,18 140,22 145,15 142,25 132,22" fill="#3A3A3A"/>
  <!-- Gas mask -->
  <polygon points="74,45 126,45 128,75 72,75" fill="#555"/>
  <polygon points="74,45 126,45 124,48 76,48" fill="#666"/>
  <!-- Mask eye pieces -->
  <polygon points="78,50 96,50 95,62 79,62" fill="#333"/>
  <polygon points="104,50 122,50 121,62 105,62" fill="#333"/>
  <polygon points="80,52 94,52 93,60 81,60" fill="#87CEEB" opacity="0.6"/>
  <polygon points="106,52 120,52 119,60 107,60" fill="#87CEEB" opacity="0.6"/>
  <!-- Mask filter -->
  <polygon points="90,65 110,65 112,78 88,78" fill="#444"/>
  <polygon points="92,68 108,68 109,75 91,75" fill="#555"/>
  <!-- Neck -->
  <polygon points="90,78 110,78 112,88 88,88" fill="#E8BE8C"/>
  <!-- Body - running lean -->
  <polygon points="62,88 142,88 148,168 56,168" fill="#2C3E50"/>
  <polygon points="142,88 148,168 140,166 135,90" fill="#1A2533"/>
  <!-- Energy drink in hand -->
  <polygon points="150,105 162,100 165,118 152,120" fill="#3498DB"/>
  <polygon points="152,100 162,100 160,104 154,104" fill="#87CEEB"/>
  <!-- Arms - running motion -->
  <polygon points="62,88 40,100 35,88 45,78 55,84" fill="#2C3E50"/>
  <polygon points="142,88 162,98 165,120 148,118 145,100" fill="#1A2533"/>
  <!-- Belt -->
  <polygon points="58,155 146,155 147,162 57,162" fill="#444"/>
  <!-- Legs - mid stride -->
  <polygon points="62,168 92,168 76,212 46,212" fill="#556B2F"/>
  <polygon points="108,168 142,168 158,212 122,212" fill="#4A5F25"/>
  <!-- Feet -->
  <polygon points="42,210 80,210 84,220 38,220" fill="#E74C3C"/>
  <polygon points="118,210 162,210 166,220 114,220" fill="#C0392B"/>
</svg>