<svg xmlns="http://www.w3.org/2000/svg" viewBox="0 0 200 220" width="200" height="220">
  <!-- 野区仓鼠 Loot Hamster - big backpack, stuffed with items, round cheeks -->
  <!-- Backpack (behind body) -->
  <polygon points="55,72 145,72 150,170 50,170" fill="#8B6914"/>
  <polygon points="145,72 150,170 142,168 138,74" fill="#7A5C10"/>
  <!-- Straps -->
  <polygon points="70,72 76,72 78,100 72,100" fill="#6B5010"/>
  <polygon points="124,72 130,72 128,100 122,100" fill="#6B5010"/>
  <!-- Items poking out top -->
  <polygon points="58,72 68,55 78,70" fill="#3498DB"/>
  <polygon points="122,70 132,55 142,72" fill="#E74C3C"/>
  <polygon points="90,68 100,52 110,68" fill="#2ECC71"/>
  <!-- Head - round cheeks via wider polygon -->
  <polygon points="68,15 132,15 140,50 136,82 64,82 60,50" fill="#F2D0A4"/>
  <polygon points="132,15 140,50 136,82 130,80 134,50 128,17" fill="#E8BE8C"/>
  <!-- Cheeks - rosy -->
  <polygon points="62,55 74,52 72,65 60,62" fill="#F5A0A0"/>
  <polygon points="126,52 138,55 140,62 128,65" fill="#F5A0A0"/>
  <!-- Hair - messy -->
  <polygon points="66,15 134,15 130,30 70,30" fill="#8B4513"/>
  <polygon points="66,15 60,10 70,8 80,5 100,3 120,5 130,8 140,10 134,15" fill="#8B4513"/>
  <!-- Eyes - wide, excited -->
  <polygon points="78,42 92,42 91,54 79,54" fill="white"/>
  <polygon points="108,42 122,42 121,54 109,54" fill="white"/>
  <circle cx="86" cy="48" r="5" fill="#4A2800"/>
  <circle cx="114" cy="48" r="5" fill="#4A2800"/>
  <circle cx="87" cy="46" r="2" fill="white"/>
  <circle cx="115" cy="46" r="2" fill="white"/>
  <!-- Mouth - happy open -->
  <polygon points="90,64 110,64 106,74 94,74" fill="#333"/>
  <polygon points="94,64 106,64 104,68 96,68" fill="white"/>
  <!-- Neck -->
  <polygon points="90,82 110,82 112,92 88,92" fill="#E8BE8C"/>
  <!-- Body - puffy jacket -->
  <polygon points="60,92 140,92 144,170 56,170" fill="#556B2F"/>
  <polygon points="140,92 144,170 136,168 133,94" fill="#4A5F25"/>
  <!-- Arms - holding more loot -->
  <polygon points="60,92 42,105 40,140 55,145 58,108" fill="#556B2F"/>
  <polygon points="140,92 158,105 160,140 145,145 142,108" fill="#4A5F25"/>
  <!-- Loot in arms -->
  <polygon points="32,130 48,125 46,145 30,142" fill="#F39C12"/>
  <polygon points="152,125 168,130 170,142 154,145" fill="#9B59B6"/>
  <!-- Legs -->
  <polygon points="62,170 95,170 92,210 58,210" fill="#8B6914"/>
  <polygon points="105,170 138,170 142,210 108,210" fill="#7A5C10"/>
  <!-- Feet -->
  <polygon points="54,208 95,208 97,220 50,220" fill="#333"/>
  <polygon points="105,208 146,208 148,220 102,220" fill="#2A2A2A"/>
</svg>