<svg xmlns="http://www.w3.org/2000/svg" viewBox="0 0 200 220" width="200" height="220">
  <!-- 1V4莽夫 Berserker - bandana, muscles, dual wielding, aggressive stance -->
  <!-- Head -->
  <polygon points="72,30 128,30 132,55 129,85 71,85 68,55" fill="#F2D0A4"/>
  <polygon points="128,30 132,55 129,85 123,83 126,55 124,32" fill="#D4A872"/>
  <!-- Bandana -->
  <polygon points="65,28 135,28 132,42 68,42" fill="#E74C3C"/>
  <polygon points="132,42 135,28 140,35 145,30 138,45" fill="#E74C3C"/>
  <!-- Hair spiky -->
  <polygon points="68,28 78,10 88,25 98,8 108,25 118,12 132,28" fill="#1A1A1A"/>
  <!-- Eyes - angry -->
  <polygon points="80,52 93,55 91,62 82,60" fill="white"/>
  <polygon points="107,55 120,52 118,60 109,62" fill="white"/>
  <polygon points="85,55 91,57 90,61 86,59" fill="#8B0000"/>
  <polygon points="111,57 117,55 116,59 112,61" fill="#8B0000"/>
  <!-- Angry brows -->
  <polygon points="78,46 95,50 93,53 78,50" fill="#1A1A1A"/>
  <polygon points="105,50 122,46 122,50 107,53" fill="#1A1A1A"/>
  <!-- Mouth - yelling -->
  <polygon points="88,70 112,70 110,80 90,80" fill="#333"/>
  <polygon points="90,72 110,72 108,74 92,74" fill="white"/>
  <!-- Neck thick -->
  <polygon points="85,85 115,85 118,98 82,98" fill="#D4A872"/>
  <!-- Body - tank top -->
  <polygon points="50,98 150,98 155,170 45,170" fill="#333"/>
  <polygon points="150,98 155,170 145,168 142,100" fill="#222"/>
  <!-- Arms - muscular, spread -->
  <polygon points="50,98 28,108 20,90 30,75 42,85" fill="#F2D0A4"/>
  <polygon points="150,98 172,108 180,90 170,75 158,85" fill="#D4A872"/>
  <!-- Forearms -->
  <polygon points="20,90 30,75 18,60 10,72" fill="#F2D0A4"/>
  <polygon points="180,90 170,75 182,60 190,72" fill="#D4A872"/>
  <!-- Guns in hands -->
  <polygon points="6,58 22,55 20,65 8,66" fill="#555"/>
  <polygon points="178,55 194,58 192,66 180,65" fill="#555"/>
  <polygon points="2,60 8,58 6,68 0,66" fill="#444"/>
  <polygon points="192,58 198,60 200,66 194,68" fill="#444"/>
  <!-- Belt -->
  <polygon points="48,158 152,158 153,165 47,165" fill="#8B4513"/>
  <polygon points="95,158 105,158 106,165 94,165" fill="#FFD700"/>
  <!-- Legs - wide stance -->
  <polygon points="50,170 90,170 82,212 42,212" fill="#556B2F"/>
  <polygon points="110,170 150,170 158,212 118,212" fill="#4A5F25"/>
  <!-- Boots -->
  <polygon points="38,210 85,210 88,220 34,220" fill="#333"/>
  <polygon points="115,210 162,210 166,220 112,220" fill="#2A2A2A"/>
</svg>