<svg xmlns="http://www.w3.org/2000/svg" viewBox="0 0 200 220" width="200" height="220">
  <!-- 意识钢枪 Tactical Fragger - headset, tactical vest, pointing forward -->
  <!-- Head -->
  <polygon points="74,22 126,22 130,50 128,82 72,82 70,50" fill="#F2D0A4"/>
  <polygon points="126,22 130,50 128,82 122,80 125,50 122,24" fill="#E8BE8C"/>
  <!-- Hair - military short -->
  <polygon points="72,22 128,22 126,34 74,34" fill="#2C2C2C"/>
  <polygon points="72,22 68,18 80,15 100,13 120,15 132,18 128,22" fill="#2C2C2C"/>
  <!-- Headset -->
  <polygon points="64,38 70,35 72,55 66,55" fill="#444"/>
  <polygon points="128,35 136,38 134,55 128,55" fill="#444"/>
  <polygon points="64,38 136,38 134,34 66,34" fill="#555"/>
  <!-- Headset mic -->
  <polygon points="64,55 58,58 54,68 60,70 64,60" fill="#444"/>
  <!-- Eyes - focused -->
  <polygon points="80,48 93,48 92,56 81,56" fill="white"/>
  <polygon points="108,48 121,48 120,56 109,56" fill="white"/>
  <polygon points="84,50 91,50 90,55 85,55" fill="#2C5F2C"/>
  <polygon points="112,50 119,50 118,55 113,55" fill="#2C5F2C"/>
  <!-- Brows -->
  <polygon points="79,44 94,43 93,47 80,47" fill="#2C2C2C"/>
  <polygon points="107,43 122,44 121,47 108,47" fill="#2C2C2C"/>
  <!-- Mouth - determined -->
  <polygon points="92,66 108,66 106,70 94,70" fill="#C4846C"/>
  <!-- Neck -->
  <polygon points="90,82 110,82 112,92 88,92" fill="#E8BE8C"/>
  <!-- Tactical vest -->
  <polygon points="55,92 145,92 148,172 52,172" fill="#556B2F"/>
  <polygon points="145,92 148,172 140,170 137,94" fill="#4A5F25"/>
  <!-- Vest pouches -->
  <polygon points="62,108 82,108 81,125 61,125" fill="#4A5F25"/>
  <polygon points="88,108 112,108 111,125 87,125" fill="#4A5F25"/>
  <polygon points="118,108 138,108 139,125 119,125" fill="#3E5220"/>
  <!-- Right arm pointing -->
  <polygon points="145,92 165,105 175,95 185,100 172,115 148,108" fill="#556B2F"/>
  <!-- Pointing finger -->
  <polygon points="185,96 198,92 200,98 188,100" fill="#F2D0A4"/>
  <!-- Left arm -->
  <polygon points="55,92 38,108 36,145 52,148 55,110" fill="#556B2F"/>
  <!-- Belt -->
  <polygon points="54,158 146,158 147,165 53,165" fill="#333"/>
  <!-- Legs -->
  <polygon points="58,172 95,172 92,212 55,212" fill="#556B2F"/>
  <polygon points="105,172 142,172 145,212 108,212" fill="#4A5F25"/>
  <!-- Boots -->
  <polygon points="52,210 95,210 97,220 48,220" fill="#333"/>
  <polygon points="105,210 148,210 150,220 102,220" fill="#2A2A2A"/>
</svg>